<?xml version="1.0" encoding="iso-8859-1"?>
<!-- Uploaded to: SVG Repo, www.svgrepo.com, Generator: SVG Repo Mixer Tools -->
<svg version="1.1" id="Layer_1" xmlns="http://www.w3.org/2000/svg" xmlns:xlink="http://www.w3.org/1999/xlink" 
	 viewBox="0 0 511.992 511.992" xml:space="preserve">
<path style="fill:#AAB2BC;" d="M406.135,328.898c0-2.844-1.109-5.562-3.125-7.562L113.67,32.005
	c-1.625-1.641-3.75-2.703-6.031-3.016l-52.796-7.547c-3.328-0.484-6.688,0.641-9.062,3.016c-2.359,2.375-3.484,5.719-3.016,9.047
	l7.547,52.796c0.328,2.281,1.391,4.406,3.016,6.031l289.354,289.346c4.156,4.156,10.922,4.156,15.078,0l45.25-45.249
	C405.025,334.429,406.135,331.71,406.135,328.898z"/>
<path style="opacity:0.2;fill:#FFFFFF;enable-background:new    ;" d="M403.01,321.336L113.67,32.005
	c-1.625-1.641-3.75-2.703-6.031-3.016l-52.796-7.547c-3.328-0.484-6.688,0.641-9.062,3.016c-2.359,2.375-3.484,5.719-3.016,9.047
	l7.547,52.796c0.328,2.281,1.391,4.406,3.016,6.031l289.354,289.346c4.156,4.156,10.922,4.156,15.078,0l45.25-45.249
	c2.016-2,3.125-4.719,3.125-7.53C406.135,326.055,405.025,323.336,403.01,321.336z M350.213,374.146L60.874,84.801l-7.547-52.796
	l52.796,7.531l289.355,289.362L350.213,374.146z"/>
<g style="opacity:0.1;">
	<path style="fill:#080808;" d="M365.307,359.054L131.123,124.878c-4.156-4.172-4.156-10.922,0-15.078
		c4.172-4.172,10.922-4.172,15.094,0l234.168,234.16c4.172,4.188,4.172,10.938,0,15.094
		C376.228,363.21,369.463,363.21,365.307,359.054z"/>
</g>
<path style="fill:#ED5564;" d="M496.648,442.021c0-2.812-1.125-5.531-3.125-7.531l-79.186-79.218c-2-2-4.719-3.125-7.547-3.125
	s-5.547,1.125-7.547,3.125l-22.625,22.655c-4.172,4.156-4.172,10.906,0,15.062l79.201,79.218c4.156,4.156,10.906,4.156,15.078,0
	l22.625-22.625C495.523,447.584,496.648,444.865,496.648,442.021z"/>
<path style="fill:#FFCE54;" d="M501.07,426.928c-14.562-14.531-38.234-14.531-52.797,0c-14.562,14.562-14.562,38.249,0,52.811
	s38.234,14.562,52.797,0C515.633,465.177,515.633,441.49,501.07,426.928z"/>
<polygon style="fill:#DA4453;" points="399.244,415.615 414.338,430.709 452.039,392.99 436.961,377.928 "/>
<path style="fill:#CCD1D9;" d="M458.664,92.332c1.641-1.625,2.703-3.75,3.031-6.031l7.531-52.796
	c0.484-3.328-0.641-6.672-3.016-9.047s-5.719-3.5-9.047-3.016l-52.795,7.547c-2.281,0.312-4.406,1.375-6.031,3.016L108.983,321.336
	c-2,2-3.125,4.719-3.125,7.562c0,2.812,1.125,5.53,3.125,7.53l45.265,45.249c4.156,4.156,10.906,4.156,15.078,0L458.664,92.332z"/>
<path style="opacity:0.2;fill:#FFFFFF;enable-background:new    ;" d="M466.211,24.458c-2.375-2.375-5.719-3.5-9.047-3.016
	l-52.795,7.547c-2.281,0.312-4.406,1.375-6.031,3.016L108.983,321.336c-2,2-3.125,4.719-3.125,7.562c0,2.812,1.125,5.53,3.125,7.53
	l45.265,45.249c4.156,4.156,10.906,4.156,15.078,0L458.664,92.332c1.641-1.625,2.703-3.75,3.031-6.031l7.531-52.796
	C469.711,30.177,468.586,26.833,466.211,24.458z M458.664,32.005l-7.531,52.796L161.779,374.146l-45.249-45.248L405.869,39.536
	L458.664,32.005L458.664,32.005L458.664,32.005z"/>
<path style="fill:#AAB2BC;" d="M131.607,359.054c-4.156-4.156-4.156-10.906,0-15.094L365.791,109.8
	c4.172-4.172,10.922-4.172,15.078,0c4.172,4.156,4.172,10.906,0,15.078L146.701,359.054
	C142.529,363.21,135.779,363.21,131.607,359.054z"/>
<path style="fill:#ED5564;" d="M135.389,377.928l-22.625-22.655c-2-2-4.719-3.125-7.547-3.125s-5.547,1.125-7.547,3.125
	l-79.202,79.218c-2,2-3.125,4.719-3.125,7.531c0,2.844,1.125,5.531,3.125,7.562l22.641,22.625c4.156,4.156,10.906,4.156,15.078,0
	l79.202-79.218C139.545,388.834,139.545,382.084,135.389,377.928z"/>
<path style="fill:#FFCE54;" d="M63.734,426.928c-14.562-14.531-38.25-14.531-52.796,0C3.876,433.99,0,443.366,0,453.333
	c0,9.969,3.875,19.344,10.938,26.405c14.546,14.562,38.233,14.562,52.796,0C78.28,465.177,78.28,441.49,63.734,426.928z"/>
<rect x="59.683" y="393.635" transform="matrix(0.7071 0.7071 -0.7071 0.7071 311.1808 57.3583)" style="fill:#DA4453;" width="53.339" height="21.346"/>
<g>
	<path style="fill:#FFCE54;" d="M154.247,426.928l-90.514-90.499c-3.25-3.25-4.062-8.218-2-12.312l15.078-30.188
		c1.531-3.062,4.453-5.188,7.844-5.75c3.375-0.531,6.828,0.562,9.25,3l105.592,105.592c2.422,2.406,3.531,5.875,2.984,9.25
		s-2.688,6.312-5.75,7.844l-30.171,15.062C162.451,430.99,157.482,430.178,154.247,426.928z"/>
	<path style="fill:#FFCE54;" d="M448.273,336.429c3.25-3.25,4.047-8.218,2-12.312l-15.094-30.188
		c-1.531-3.062-4.438-5.188-7.826-5.75c-3.391-0.531-6.828,0.562-9.25,3L312.512,396.771c-2.438,2.406-3.547,5.875-3,9.25
		c0.375,2.25,1.438,4.281,3,5.844c0.797,0.781,1.734,1.469,2.766,2l30.17,15.062c4.109,2.062,9.062,1.25,12.312-2L448.273,336.429z"
		/>
</g>
</svg>